<svg xmlns="http://www.w3.org/2000/svg" width="16" height="16" version="1.1">
 <path fill="context-fill" fill-opacity="context-fill-opacity" d="M 1.8008,1 C 0.80354,1 0,1.8036 0,2.8008 V 13.199 C 0,14.196 0.80354,15 1.8008,15 H 7 V 13 H 2 V 3 H 13 V 8 H 15 V 2.8008 C 15,1.8036 14.196,1 13.199,1 Z M 5,5 C 4.7348,5.0001 4.4805,5.1055 4.293,5.293 3.9026,5.6835 3.9026,6.3165 4.293,6.707 L 6.293,8.707 5,10 H 9 V 6 L 7.707,7.293 5.707,5.293 C 5.5195,5.1055 5.2652,5.0001 5,5 Z M 10,10 C 9,10 9,11 9,11 V 15 C 9,16 10,16 10,16 H 15 C 16,16 16,15 16,15 V 11 C 16,10 15,10 15,10 Z"/>
</svg>
