<svg xmlns="http://www.w3.org/2000/svg" width="16" height="16" version="1.1">
 <path fill="context-fill" fill-opacity="context-fill-opacity" d="M 1.8008 1 C 0.80354 1 1.4803e-16 1.8036 0 2.8008 L 0 13.199 C 0 14.196 0.80354 15 1.8008 15 L 9 15 L 9 13 L 2 13 L 2 3 L 13 3 L 13 9 L 15 9 L 15 2.8008 C 15 1.8036 14.196 1 13.199 1 L 1.8008 1 z M 4 4 C 3 4 3 5 3 5 L 3 9 C 3 10 4 10 4 10 L 9 10 C 10 10 10 9 10 9 L 10 5 C 10 4 9 4 9 4 L 4 4 z M 11 11 L 11 15 L 12.293 13.707 L 14.293 15.707 A 1 1 0 0 0 15 16 A 1 1 0 0 0 15.707 15.707 A 1 1 0 0 0 15.707 14.293 L 13.707 12.293 L 15 11 L 11 11 z"/>
</svg>
