<svg xmlns="http://www.w3.org/2000/svg" width="16" height="16" version="1.1">
 <path fill="context-fill" fill-opacity="context-fill-opacity" d="M 1.7460938 1 C 0.77952175 1 2.9605947e-16 1.7880643 0 2.7675781 C 0 10.028767 1.309943 15.026249 8 15 C 14.690286 14.97316 16 10.022992 16 2.7675781 C 16 1.7880643 15.220478 1 14.253906 1 L 1.7460938 1 z M 4.1308594 5 C 4.4192834 5 4.7082612 5.1121562 4.9296875 5.3320312 L 8 8.3789062 L 11.070312 5.3320312 C 11.291757 5.1121562 11.576217 5.0039062 11.865234 5.0039062 C 12.154235 5.0039062 12.446548 5.1121561 12.667969 5.3320312 C 13.110859 5.7717813 13.110859 6.4860311 12.667969 6.9257812 L 8.8847656 10.679688 C 8.6415345 10.921183 8.3166994 11.019876 8 10.996094 C 7.6832942 11.020114 7.3584897 10.921184 7.1152344 10.679688 L 3.3320312 6.9257812 C 2.8891419 6.4860311 2.889142 5.7717813 3.3320312 5.3320312 C 3.5534826 5.1121561 3.842429 5 4.1308594 5 z"/>
</svg>
