<svg xmlns="http://www.w3.org/2000/svg" width="16" height="16" version="1.1">
 <path fill="context-fill" fill-opacity="context-fill-opacity" d="M 8,1 C 4.15,1 1,4.14 1,8 1,11.85 4.14,15 8,15 11.85,15 14.85,11.86 14.85,8 V 8 C 14.849,11.783 11.783,14.825 8,14.826 4.2172,14.825 1.2262,11.783 1.226,8 V 8 C 1.2264,11.7 4.3003,14.675 8,14.675 11.7,14.675 14.551,11.7 14.551,8 V 8 C 14.551,11.618 11.618,14.527 8,14.527 4.3819,14.527 1.5244,11.618 1.5248,8 V 8 C 1.5246,11.535 4.4651,14.377 8,14.376 11.535,14.377 14.251,11.535 14.25,8 V 8 C 14.25,11.452 11.452,14.226 8,14.226 4.5482,14.226 1.8256,11.452 1.8256,8 V 8 C 1.8258,11.369 4.6314,14.075 8,14.076 11.369,14.075 13.948,11.369 13.949,8 V 8 C 13.949,11.285 11.285,13.925 8,13.925 4.7145,13.925 2.1248,11.285 2.1244,8 V 8 C 2.124,11.204 4.7961,13.777 8,13.777 11.204,13.777 13.65,11.204 13.65,8 V 8 C 13.651,11.121 11.121,13.627 8,13.626 4.8793,13.627 2.425,11.121 2.4252,8 V 8 C 2.4252,11.038 4.9624,13.476 8,13.476 11.038,13.476 13.35,11.038 13.35,8 V 8 C 13.349,10.954 10.954,13.325 8,13.326 5.0456,13.325 2.7262,10.954 2.726,8 V 8 C 2.7264,10.871 5.1287,13.175 8,13.175 10.871,13.175 13,10.871 13,8 V 8 C 13,10.78 10.77,13 8,13 5.23,13 3,10.77 3,8 3,5.23 5.23,3 8,3 8.55,3 9,2.55 9,2 9,1.45 8.55,1 8,1 Z"/>
</svg>
