<svg xmlns="http://www.w3.org/2000/svg" width="16" height="16" version="1.1">
 <path fill="context-fill" fill-opacity="context-fill-opacity" d="M 10,1 C 11,1 12,1 13,1 12.667,2 12.333,3 12,4 13.333,4 14.667,4 16,4 14,6 12,8 10,10 10.333,8.6667 10.667,7.3333 11,6 10,6 9,6 8,6 8.6667,4.3333 9.3333,2.6667 10,1 Z M 2,2 C 1.3237,1.9399 0.91481,2.6353 1,3.2382 1.0019,6.5224 0.99618,9.8067 1.0029,13.091 0.9987,13.755 1.7007,14.075 2.2779,14 6.2155,13.998 10.153,14.004 14.091,13.997 14.755,14.001 15.075,13.299 15,12.722 15,10.855 15,8.9881 15,7.1211 14.333,7.7878 13.667,8.4544 13,9.1211 13,10.081 13,11.04 13,12 9.6667,12 6.3333,12 3,12 3,9.6667 3,7.3333 3,5 4.2617,5 5.5235,5 6.7852,5 7.1849,4 7.5847,3 7.9844,2 5.9896,2 3.9948,2 2,2 Z"/>
</svg>
